<svg xmlns="http://www.w3.org/2000/svg" width="200" height="200" viewBox="0 0 200 200">
  <g id="sucess" transform="translate(1.003 -0.155)">
    <circle id="Ellipse_389" data-name="Ellipse 389" cx="100" cy="100" r="100" transform="translate(-1.003 0.155)" fill="#3ecc80"/>
    <path id="Path_2257" data-name="Path 2257" d="M3663.831-2519.789h-.069a5,5,0,0,1-3.563-1.562l-23.942-25.294a5,5,0,0,1,.194-7.068,5,5,0,0,1,7.068.194l20.409,21.562,54.021-54.021a5,5,0,0,1,7.071,0,5,5,0,0,1,0,7.071l-57.655,57.656A5,5,0,0,1,3663.831-2519.789Z" transform="translate(-3579.377 2651.979)" fill="#fff"/>
  </g>
</svg>
